# xmcd CD database file
#
# Track frame offsets:
#	150
#	16038
#	36170
#	55010
#	69028
#	85678
#	98712
#	116503
#	146091
#
# Disc length: 2209 seconds
#
# Revision: 0
# Processed by: cddbd v1.5.1PL0 Copyright (c) Steve Scherf et al.
# Submitted via: CDex 1.51
#
DISCID=64089f09
DTITLE=Various Artist - Shock Promo CD
DYEAR=2004
DGENRE=Various
TTITLE0=The Grim Northern Social/Honey
TTITLE1=Jack Planck/Fit Slender And Attractive
TTITLE2=The Twilight Singers/Decatur St
TTITLE3=Cody Chesnutt/Upstarts In A Blowout
TTITLE4=Jeff Klein/Keep It (Like A Secret)
TTITLE5=Alabama 3/Bullet Proof
TTITLE6=Black Box Recorder/These Are The Things
TTITLE7=Fluke/Blue Sky
TTITLE8=Baz/Ghetto Lady
EXTD=YEAR: 2004
EXTT0=
EXTT1=
EXTT2=
EXTT3=
EXTT4=
EXTT5=
EXTT6=
EXTT7=
EXTT8=
PLAYORDER=
